<svg xmlns="http://www.w3.org/2000/svg" xmlns:xlink="http://www.w3.org/1999/xlink" version="1.1" style="shape-rendering:geometricPrecision; text-rendering:geometricPrecision; image-rendering:optimizeQuality; fill-rule:evenodd; clip-rule:evenodd" viewBox="240.5 517.49 1519.02 964.18">
<g><path style="opacity:0.985" fill="#00aeef" d="M 1026.5,517.5 C 1078.3,517.323 1129.96,519.823 1181.5,525C 1216.62,529.824 1251.12,537.324 1285,547.5C 1285.69,548.332 1285.52,548.998 1284.5,549.5C 1266.1,557.533 1248.1,566.367 1230.5,576C 1222.81,581.183 1215.47,586.849 1208.5,593C 1208.83,593.167 1209.17,593.333 1209.5,593.5C 1235.81,582.118 1262.48,571.618 1289.5,562C 1305.59,558.424 1321.59,558.758 1337.5,563C 1371.58,575.136 1405.58,587.47 1439.5,600C 1424.44,607.531 1409.1,614.531 1393.5,621C 1376.66,628.912 1360.99,638.578 1346.5,650C 1370.5,644.668 1394.5,639.002 1418.5,633C 1445.09,627.321 1471.93,623.155 1499,620.5C 1506.9,620.689 1514.4,622.522 1521.5,626C 1596.93,657.177 1665.26,699.177 1726.5,752C 1694.99,759.96 1663.33,767.46 1631.5,774.5C 1632.38,775.251 1633.38,775.751 1634.5,776C 1666.86,777.468 1699.19,779.301 1731.5,781.5C 1710.12,785.229 1688.79,789.063 1667.5,793C 1697.4,801.309 1727.4,809.309 1757.5,817C 1758.97,817.71 1759.64,818.876 1759.5,820.5C 1683.63,814.299 1609.29,800.133 1536.5,778C 1478.9,759.132 1421.23,740.465 1363.5,722C 1273.69,696.13 1182.69,675.463 1090.5,660C 1037.32,653.673 983.982,652.006 930.5,655C 814.776,661.007 699.776,673.674 585.5,693C 526.396,702.488 467.729,714.154 409.5,728C 405.5,728.667 401.5,728.667 397.5,728C 390.349,723.537 388.183,717.37 391,709.5C 407.683,684.814 428.85,664.981 454.5,650C 481.994,632.508 509.827,615.674 538,599.5C 538.315,600.908 537.982,602.241 537,603.5C 524.624,617.541 512.624,631.874 501,646.5C 496.888,652.057 493.888,658.057 492,664.5C 516.199,637.468 545.365,617.802 579.5,605.5C 579.833,605.833 580.167,606.167 580.5,606.5C 569.389,615.896 558.056,625.062 546.5,634C 540.59,639.239 535.423,645.072 531,651.5C 530.409,652.483 530.743,653.15 532,653.5C 576.235,626.296 620.735,599.463 665.5,573C 702.791,553.76 742.458,543.76 784.5,543C 827.507,542.3 870.507,542.633 913.5,544C 915.167,544.333 916.833,544.667 918.5,545C 904.971,558.863 891.138,572.363 877,585.5C 866.565,596.525 859.065,609.359 854.5,624C 854.833,624.5 855.167,625 855.5,625.5C 869.558,608.937 884.558,593.104 900.5,578C 936.902,546.3 978.902,526.133 1026.5,517.5 Z"/></g>
<g><path style="opacity:0.954" fill="#00aeef" d="M 925.5,671.5 C 1013.37,668.348 1100.37,675.515 1186.5,693C 1257.99,707.957 1328.99,724.957 1399.5,744C 1488.83,771.333 1578.17,798.667 1667.5,826C 1666.66,827.011 1666.33,828.178 1666.5,829.5C 1616.67,820.167 1567,810.001 1517.5,799C 1443.17,780 1368.83,761 1294.5,742C 1122.26,704.459 948.259,692.792 772.5,707C 665.593,716.04 559.593,731.373 454.5,753C 427.603,759.599 400.769,766.433 374,773.5C 369.773,765.998 366.606,757.998 364.5,749.5C 461.593,728.315 559.26,710.148 657.5,695C 746.563,682.192 835.896,674.358 925.5,671.5 Z"/></g>
<g><path style="opacity:0.93" fill="#00aeef" d="M 352.5,733.5 C 353.496,733.414 354.329,733.748 355,734.5C 360.833,750.667 366.667,766.833 372.5,783C 365.873,786.493 358.873,789.327 351.5,791.5C 350.558,791.392 349.725,791.059 349,790.5C 343.265,774.462 337.432,758.462 331.5,742.5C 338.413,739.306 345.413,736.306 352.5,733.5 Z"/></g>
<g><path style="opacity:0.927" fill="#00aeef" d="M 328.5,743.5 C 330.117,745.121 331.284,747.121 332,749.5C 337.068,763.538 342.235,777.538 347.5,791.5C 347.167,791.833 346.833,792.167 346.5,792.5C 314.162,797.62 281.829,802.786 249.5,808C 752.499,823.937 1255.5,839.771 1758.5,855.5C 1758.31,863.84 1757.98,872.174 1757.5,880.5C 1251.79,856.855 746.126,832.689 240.5,808C 266.888,788.612 293.555,769.612 320.5,751C 323.666,749 326.332,746.5 328.5,743.5 Z"/></g>
<g><path style="opacity:0.973" fill="#00aeef" d="M 338.5,864.5 C 357.042,863.979 375.042,866.813 392.5,873C 407.906,879.408 419.906,889.742 428.5,904C 420.301,909.267 411.635,913.767 402.5,917.5C 395.004,902.512 383.004,893.345 366.5,890C 331.386,884.44 309.553,898.94 301,933.5C 299.014,942.403 297.681,951.403 297,960.5C 296.333,1035.5 296.333,1110.5 297,1185.5C 297.548,1204.65 303.714,1221.65 315.5,1236.5C 329.2,1249.07 345.2,1253.24 363.5,1249C 375.815,1245.35 384.315,1237.52 389,1225.5C 390.741,1220.95 392.074,1216.28 393,1211.5C 393.5,1166.83 393.667,1122.17 393.5,1077.5C 378.5,1077.5 363.5,1077.5 348.5,1077.5C 348.5,1069.5 348.5,1061.5 348.5,1053.5C 378.5,1053.5 408.5,1053.5 438.5,1053.5C 438.5,1124.83 438.5,1196.17 438.5,1267.5C 429.161,1267.67 419.827,1267.5 410.5,1267C 404.958,1261.63 399.624,1256.13 394.5,1250.5C 386.879,1261.32 376.545,1268.15 363.5,1271C 333.538,1275.71 305.205,1271.05 278.5,1257C 255.764,1240.38 243.264,1217.88 241,1189.5C 240.333,1111.83 240.333,1034.17 241,956.5C 246.933,897.625 279.433,866.959 338.5,864.5 Z"/></g>
<g><path style="opacity:0.962" fill="#00aeef" d="M 1214.5,964.5 C 1234.64,961.797 1253.31,965.63 1270.5,976C 1282.57,986.969 1290.41,1000.47 1294,1016.5C 1295.59,1023.44 1296.75,1030.44 1297.5,1037.5C 1289.57,1039.39 1281.57,1040.55 1273.5,1041C 1271.83,1023.97 1265.49,1008.97 1254.5,996C 1242.22,986.811 1228.56,984.145 1213.5,988C 1188.98,993.882 1180.81,1008.72 1189,1032.5C 1191.42,1037 1194.08,1041.33 1197,1045.5C 1227.42,1080.58 1257.09,1116.25 1286,1152.5C 1302.05,1177.21 1305.38,1203.54 1296,1231.5C 1285.37,1254.25 1267.54,1267.41 1242.5,1271C 1186.35,1279.93 1154.35,1256.26 1146.5,1200C 1154.44,1198.18 1162.44,1196.68 1170.5,1195.5C 1174.72,1236.26 1197.06,1254.09 1237.5,1249C 1263.05,1243.37 1272.21,1228.21 1265,1203.5C 1262,1198.83 1259,1194.17 1256,1189.5C 1228.29,1158.13 1200.96,1126.46 1174,1094.5C 1153.65,1067.38 1148.98,1037.71 1160,1005.5C 1170.89,982.106 1189.06,968.439 1214.5,964.5 Z"/></g>
<g><path style="opacity:0.972" fill="#00aeef" d="M 486.5,969.5 C 502.167,969.5 517.833,969.5 533.5,969.5C 533.333,1052.17 533.5,1134.83 534,1217.5C 537.78,1245.25 553.28,1255.42 580.5,1248C 589.993,1243.84 595.826,1236.67 598,1226.5C 598.912,1222.21 599.579,1217.87 600,1213.5C 600.5,1132.17 600.667,1050.83 600.5,969.5C 615.167,969.5 629.833,969.5 644.5,969.5C 644.667,1050.17 644.5,1130.83 644,1211.5C 641.413,1243.41 624.58,1262.91 593.5,1270C 574.506,1273.31 555.506,1273.31 536.5,1270C 507.066,1263.57 490.566,1245.4 487,1215.5C 486.5,1133.5 486.333,1051.5 486.5,969.5 Z"/></g>
<g><path style="opacity:0.963" fill="#00aeef" d="M 694.5,969.5 C 708.833,969.5 723.167,969.5 737.5,969.5C 737.5,1068.83 737.5,1168.17 737.5,1267.5C 723.167,1267.5 708.833,1267.5 694.5,1267.5C 694.5,1168.17 694.5,1068.83 694.5,969.5 Z"/></g>
<g><path style="opacity:0.976" fill="#00aeef" d="M 790.5,969.5 C 819.525,969.087 848.525,969.587 877.5,971C 899.364,973.017 917.864,981.85 933,997.5C 939.252,1006.24 943.586,1015.9 946,1026.5C 947.143,1056.3 947.643,1086.13 947.5,1116C 947.643,1145.87 947.143,1175.7 946,1205.5C 938.768,1240.73 917.268,1260.89 881.5,1266C 851.196,1267.44 820.863,1267.94 790.5,1267.5C 790.5,1168.17 790.5,1068.83 790.5,969.5 Z M 837.5,992.5 C 845.507,992.334 853.507,992.5 861.5,993C 885.996,996.5 899.162,1010.67 901,1035.5C 901.667,1088.83 901.667,1142.17 901,1195.5C 897.444,1234.22 876.278,1250.89 837.5,1245.5C 837.5,1161.17 837.5,1076.83 837.5,992.5 Z"/></g>
<g><path style="opacity:0.979" fill="#00aeef" d="M 997.5,969.5 C 1038.83,969.5 1080.17,969.5 1121.5,969.5C 1121.5,977.167 1121.5,984.833 1121.5,992.5C 1095.5,992.5 1069.5,992.5 1043.5,992.5C 1043.5,1019.17 1043.5,1045.83 1043.5,1072.5C 1062.5,1072.5 1081.5,1072.5 1100.5,1072.5C 1100.5,1080.17 1100.5,1087.83 1100.5,1095.5C 1081.5,1095.5 1062.5,1095.5 1043.5,1095.5C 1043.5,1145.5 1043.5,1195.5 1043.5,1245.5C 1069.5,1245.5 1095.5,1245.5 1121.5,1245.5C 1121.5,1252.83 1121.5,1260.17 1121.5,1267.5C 1080.17,1267.5 1038.83,1267.5 997.5,1267.5C 997.5,1168.17 997.5,1068.83 997.5,969.5 Z"/></g>
<g><path style="opacity:0.963" fill="#00aeef" d="M 1343.5,969.5 C 1357.83,969.5 1372.17,969.5 1386.5,969.5C 1386.5,1068.83 1386.5,1168.17 1386.5,1267.5C 1372.17,1267.5 1357.83,1267.5 1343.5,1267.5C 1343.5,1168.17 1343.5,1068.83 1343.5,969.5 Z"/></g>
<g><path style="opacity:0.98" fill="#00aeef" d="M 1439.5,969.5 C 1480.83,969.5 1522.17,969.5 1563.5,969.5C 1563.5,977.167 1563.5,984.833 1563.5,992.5C 1537.5,992.5 1511.5,992.5 1485.5,992.5C 1485.5,1019.17 1485.5,1045.83 1485.5,1072.5C 1504.5,1072.5 1523.5,1072.5 1542.5,1072.5C 1542.5,1080.17 1542.5,1087.83 1542.5,1095.5C 1523.5,1095.5 1504.5,1095.5 1485.5,1095.5C 1485.5,1152.83 1485.5,1210.17 1485.5,1267.5C 1470.17,1267.5 1454.83,1267.5 1439.5,1267.5C 1439.5,1168.17 1439.5,1068.83 1439.5,969.5 Z"/></g>
<g><path style="opacity:0.965" fill="#00aeef" d="M 1572.5,969.5 C 1590.41,969.174 1608.24,969.508 1626,970.5C 1642.27,1019.98 1658.94,1069.32 1676,1118.5C 1695.74,1069.13 1715.57,1019.79 1735.5,970.5C 1743.47,969.502 1751.47,969.169 1759.5,969.5C 1736.58,1029.34 1713.08,1089.01 1689,1148.5C 1688.5,1188.17 1688.33,1227.83 1688.5,1267.5C 1672.5,1267.5 1656.5,1267.5 1640.5,1267.5C 1640.67,1229.83 1640.5,1192.17 1640,1154.5C 1616.99,1092.97 1594.49,1031.31 1572.5,969.5 Z"/></g>
<g><path style="opacity:0.93" fill="#00aeef" d="M 281.5,1291.5 C 313.29,1288.29 330.623,1302.62 333.5,1334.5C 329.283,1335.91 324.95,1336.58 320.5,1336.5C 316.528,1306.18 300.195,1296.35 271.5,1307C 260.45,1315.41 258.616,1325.58 266,1337.5C 284.626,1359.8 303.626,1381.8 323,1403.5C 337.914,1423.37 339.247,1444.04 327,1465.5C 316.544,1477.38 303.378,1482.71 287.5,1481.5C 258.135,1482.13 242.468,1467.8 240.5,1438.5C 244.5,1437.83 248.5,1437.17 252.5,1436.5C 256.672,1465.27 273.006,1476.1 301.5,1469C 317.276,1462.67 321.443,1451.84 314,1436.5C 293.291,1412.79 272.958,1388.79 253,1364.5C 242.988,1347.3 241.988,1329.64 250,1311.5C 257.602,1300.12 268.102,1293.46 281.5,1291.5 Z"/></g>
<g><path style="opacity:0.951" fill="#00aeef" d="M 1299.5,1337.5 C 1311.39,1336.37 1322.39,1338.87 1332.5,1345C 1338.82,1351.15 1342.32,1358.65 1343,1367.5C 1343.95,1397.87 1343.62,1428.2 1342,1458.5C 1338.94,1471.56 1330.78,1479.06 1317.5,1481C 1310.17,1481.67 1302.83,1481.67 1295.5,1481C 1280.34,1477.51 1271.84,1468.01 1270,1452.5C 1269.04,1422.13 1269.37,1391.79 1271,1361.5C 1275.48,1347.51 1284.98,1339.51 1299.5,1337.5 Z M 1301.5,1349.5 C 1310.16,1348.07 1315.99,1351.41 1319,1359.5C 1319.99,1363.44 1320.66,1367.44 1321,1371.5C 1321.93,1399.86 1321.6,1428.19 1320,1456.5C 1317.65,1468.21 1310.81,1472.37 1299.5,1469C 1295.05,1465.6 1292.55,1461.1 1292,1455.5C 1291.33,1425.17 1291.33,1394.83 1292,1364.5C 1292.68,1357.78 1295.85,1352.78 1301.5,1349.5 Z"/></g>
<g><path style="opacity:0.94" fill="#00aeef" d="M 775.5,1339.5 C 784.331,1338.92 792.998,1339.75 801.5,1342C 807.584,1344.58 812.25,1348.75 815.5,1354.5C 811.953,1357.2 808.119,1359.53 804,1361.5C 798.375,1351.44 790.208,1348.61 779.5,1353C 774.134,1357.57 771.301,1363.4 771,1370.5C 770.833,1384.17 770.667,1397.83 770.5,1411.5C 770.366,1426.55 770.866,1441.55 772,1456.5C 776.307,1468.82 784.307,1472.16 796,1466.5C 798.146,1463.87 799.479,1460.87 800,1457.5C 800.5,1443.17 800.667,1428.84 800.5,1414.5C 795.167,1414.5 789.833,1414.5 784.5,1414.5C 784.5,1410.83 784.5,1407.17 784.5,1403.5C 795.833,1403.5 807.167,1403.5 818.5,1403.5C 818.5,1428.83 818.5,1454.17 818.5,1479.5C 814.486,1479.67 810.486,1479.5 806.5,1479C 805,1477.5 803.5,1476 802,1474.5C 799.125,1477.46 795.625,1479.3 791.5,1480C 776.62,1482.6 764.12,1478.43 754,1467.5C 752.392,1464.62 751.059,1461.62 750,1458.5C 748.873,1442.71 748.373,1426.88 748.5,1411C 748.373,1395.12 748.873,1379.29 750,1363.5C 753.574,1350.09 762.074,1342.09 775.5,1339.5 Z"/></g>
<g><path style="opacity:0.967" fill="#00aeef" d="M 440.5,1340.5 C 447.167,1340.5 453.833,1340.5 460.5,1340.5C 460.5,1386.83 460.5,1433.17 460.5,1479.5C 453.833,1479.5 447.167,1479.5 440.5,1479.5C 440.5,1433.17 440.5,1386.83 440.5,1340.5 Z"/></g>
<g><path style="opacity:0.947" fill="#00aeef" d="M 568.5,1340.5 C 572.767,1340.2 576.934,1340.54 581,1341.5C 597.667,1372.17 614.333,1402.83 631,1433.5C 631.5,1402.5 631.667,1371.5 631.5,1340.5C 635.167,1340.5 638.833,1340.5 642.5,1340.5C 642.5,1386.83 642.5,1433.17 642.5,1479.5C 639.482,1479.66 636.482,1479.5 633.5,1479C 615.268,1449.09 597.435,1418.93 580,1388.5C 579.5,1418.83 579.333,1449.16 579.5,1479.5C 575.833,1479.5 572.167,1479.5 568.5,1479.5C 568.5,1433.17 568.5,1386.83 568.5,1340.5 Z"/></g>
<g><path style="opacity:0.942" fill="#00aeef" d="M 950.5,1340.5 C 955.099,1340.2 959.599,1340.53 964,1341.5C 975.153,1387.44 985.986,1433.44 996.5,1479.5C 988.167,1479.5 979.833,1479.5 971.5,1479.5C 969.5,1470.17 967.5,1460.83 965.5,1451.5C 955.145,1451.17 944.812,1451.5 934.5,1452.5C 932.167,1461.17 929.833,1469.83 927.5,1478.5C 923.893,1479.49 920.226,1479.82 916.5,1479.5C 927.367,1433.03 938.7,1386.7 950.5,1340.5 Z M 949.5,1388.5 C 953.962,1405.35 958.295,1422.35 962.5,1439.5C 954.193,1440.5 945.86,1440.83 937.5,1440.5C 941.5,1423.17 945.5,1405.83 949.5,1388.5 Z"/></g>
<g><path style="opacity:0.934" fill="#00aeef" d="M 1096.5,1340.5 C 1112.88,1340.09 1129.21,1340.59 1145.5,1342C 1162.81,1346.83 1171.14,1358.33 1170.5,1376.5C 1171.53,1394.65 1163.53,1406.48 1146.5,1412C 1137.61,1413.96 1128.61,1414.79 1119.5,1414.5C 1119.5,1436.17 1119.5,1457.83 1119.5,1479.5C 1111.83,1479.5 1104.17,1479.5 1096.5,1479.5C 1096.5,1433.17 1096.5,1386.83 1096.5,1340.5 Z M 1119.5,1351.5 C 1139.07,1348.91 1148.74,1357.41 1148.5,1377C 1149.22,1397.11 1139.56,1405.94 1119.5,1403.5C 1119.5,1386.17 1119.5,1368.83 1119.5,1351.5 Z"/></g>
<g><path style="opacity:0.956" fill="#00aeef" d="M 1451.5,1340.5 C 1467.22,1340.08 1482.88,1340.58 1498.5,1342C 1517,1346 1526,1357.5 1525.5,1376.5C 1526,1391.68 1519.34,1402.18 1505.5,1408C 1514.51,1412.34 1520.67,1419.17 1524,1428.5C 1525.43,1445.45 1525.93,1462.45 1525.5,1479.5C 1518.17,1479.5 1510.83,1479.5 1503.5,1479.5C 1503.67,1464.16 1503.5,1448.83 1503,1433.5C 1499.98,1417.05 1490.15,1410.72 1473.5,1414.5C 1473.5,1436.17 1473.5,1457.83 1473.5,1479.5C 1466.17,1479.5 1458.83,1479.5 1451.5,1479.5C 1451.5,1433.17 1451.5,1386.83 1451.5,1340.5 Z M 1473.5,1351.5 C 1493.52,1348.36 1503.52,1356.86 1503.5,1377C 1503.38,1396.95 1493.38,1405.78 1473.5,1403.5C 1473.5,1386.17 1473.5,1368.83 1473.5,1351.5 Z"/></g>
<g><path style="opacity:0.947" fill="#00aeef" d="M 1629.5,1340.5 C 1649.17,1340.5 1668.83,1340.5 1688.5,1340.5C 1688.5,1344.17 1688.5,1347.83 1688.5,1351.5C 1676.17,1351.5 1663.83,1351.5 1651.5,1351.5C 1651.5,1363.83 1651.5,1376.17 1651.5,1388.5C 1660.5,1388.5 1669.5,1388.5 1678.5,1388.5C 1678.5,1392.17 1678.5,1395.83 1678.5,1399.5C 1669.5,1399.5 1660.5,1399.5 1651.5,1399.5C 1651.5,1422.5 1651.5,1445.5 1651.5,1468.5C 1663.83,1468.5 1676.17,1468.5 1688.5,1468.5C 1688.5,1472.17 1688.5,1475.83 1688.5,1479.5C 1668.83,1479.5 1649.17,1479.5 1629.5,1479.5C 1629.5,1433.17 1629.5,1386.83 1629.5,1340.5 Z"/></g>
</svg>