<?xml version="1.0" encoding="UTF-8"?>
<!DOCTYPE svg PUBLIC "-//W3C//DTD SVG 1.1//EN" "http://www.w3.org/Graphics/SVG/1.1/DTD/svg11.dtd">
<svg xmlns="http://www.w3.org/2000/svg" version="1.1" width="1250px" height="81px" style="shape-rendering:geometricPrecision; text-rendering:geometricPrecision; image-rendering:optimizeQuality; fill-rule:evenodd; clip-rule:evenodd" xmlns:xlink="http://www.w3.org/1999/xlink">
<g><path style="opacity:0.969" fill="#000000" d="M 28.5,-0.5 C 65.5,-0.5 102.5,-0.5 139.5,-0.5C 140.473,1.06831 140.64,2.73498 140,4.5C 137.195,11.0859 134.695,17.7525 132.5,24.5C 118.817,24.8325 105.15,24.4992 91.5,23.5C 92.2135,21.1889 93.2135,19.0223 94.5,17C 86.5069,16.5003 78.5069,16.3336 70.5,16.5C 65.074,32.0248 59.074,47.3582 52.5,62.5C 73.4894,63.4997 94.4894,63.833 115.5,63.5C 113.786,69.263 111.786,74.9297 109.5,80.5C 74.1667,80.5 38.8333,80.5 3.5,80.5C 1.83333,79.5 0.5,78.1667 -0.5,76.5C -0.5,73.1667 -0.5,69.8333 -0.5,66.5C 7.88993,46.7026 16.0566,26.7026 24,6.5C 25.0121,3.7982 26.5121,1.46486 28.5,-0.5 Z"/></g>
<g><path style="opacity:0.977" fill="#000000" d="M 644.5,-0.5 C 685.5,-0.5 726.5,-0.5 767.5,-0.5C 771.226,3.42645 772.392,8.09312 771,13.5C 763.529,32.2473 755.862,50.9139 748,69.5C 744.499,73.9885 740.332,77.6552 735.5,80.5C 694.5,80.5 653.5,80.5 612.5,80.5C 623.167,53.5 633.833,26.5 644.5,-0.5 Z M 689.5,16.5 C 698.833,16.5 708.167,16.5 717.5,16.5C 712.251,31.6754 706.417,46.6754 700,61.5C 699.5,62 699,62.5 698.5,63C 689.149,63.8321 679.816,63.6654 670.5,62.5C 676.841,47.1377 683.174,31.8044 689.5,16.5 Z"/></g>
<g><path style="opacity:0.963" fill="#000000" d="M 238.5,80.5 C 223.833,80.5 209.167,80.5 194.5,80.5C 191.687,68.2502 189.354,55.9168 187.5,43.5C 193.842,43.6662 200.175,43.4995 206.5,43C 209.167,37 211.833,31 214.5,25C 204.172,24.5002 193.839,24.3335 183.5,24.5C 176.366,43.2338 169.033,61.9005 161.5,80.5C 146.5,80.5 131.5,80.5 116.5,80.5C 126.261,57.0523 135.928,33.5523 145.5,10C 184.499,9.50001 223.499,9.33335 262.5,9.5C 260.94,22.7869 255.94,34.6202 247.5,45C 242.564,48.1376 237.231,50.1376 231.5,51C 234.222,60.7211 236.555,70.5544 238.5,80.5 Z"/></g>
<g><path style="opacity:0.961" fill="#000000" d="M 288.5,80.5 C 273.5,80.5 258.5,80.5 243.5,80.5C 252.895,57.1554 262.395,33.8221 272,10.5C 286.77,9.17711 301.603,9.17711 316.5,10.5C 306.964,33.7775 297.631,57.1109 288.5,80.5 Z"/></g>
<g><path style="opacity:0.959" fill="#000000" d="M 399.5,80.5 C 364.833,80.5 330.167,80.5 295.5,80.5C 297.485,75.8592 299.485,71.1925 301.5,66.5C 318.5,65.8333 335.5,65.1667 352.5,64.5C 341.163,56.0051 329.663,47.6717 318,39.5C 315.983,28.8739 318.483,19.3739 325.5,11C 359.747,9.51372 394.08,9.01372 428.5,9.5C 427.421,14.3344 425.755,19.001 423.5,23.5C 403.833,24.1667 384.167,24.8333 364.5,25.5C 364.291,26.086 363.957,26.586 363.5,27C 377.755,37.0441 391.922,47.2107 406,57.5C 406.777,66.0029 404.61,73.6696 399.5,80.5 Z"/></g>
<g><path style="opacity:0.962" fill="#000000" d="M 452.5,80.5 C 437.833,80.5 423.167,80.5 408.5,80.5C 417.631,57.1109 426.964,33.7775 436.5,10.5C 451.152,9.50069 465.818,9.16735 480.5,9.5C 471.957,33.459 462.624,57.1257 452.5,80.5 Z"/></g>
<g><path style="opacity:0.959" fill="#000000" d="M 564.5,80.5 C 529.833,80.5 495.167,80.5 460.5,80.5C 462.082,75.5014 464.082,70.6681 466.5,66C 483.51,65.8329 500.51,65.3329 517.5,64.5C 506.662,56.5048 495.662,48.6714 484.5,41C 481.64,37.3186 480.807,33.1519 482,28.5C 483.438,22.9573 485.438,17.624 488,12.5C 489.255,11.7894 490.421,10.956 491.5,10C 525.498,9.50002 559.498,9.33335 593.5,9.5C 592.031,14.5738 590.364,19.5738 588.5,24.5C 568.831,24.3334 549.164,24.5 529.5,25C 529.043,25.414 528.709,25.914 528.5,26.5C 542.17,36.6616 556.003,46.6616 570,56.5C 571.613,65.1883 569.78,73.1883 564.5,80.5 Z"/></g>
<g><path style="opacity:0.957" fill="#000000" d="M 851.5,80.5 C 818.833,80.5 786.167,80.5 753.5,80.5C 752.968,77.5099 753.468,74.5099 755,71.5C 763.095,50.8133 771.595,30.3133 780.5,10C 813.498,9.50002 846.498,9.33335 879.5,9.5C 878.638,14.4177 876.971,19.0843 874.5,23.5C 855.833,24.1667 837.167,24.8333 818.5,25.5C 816.927,29.3917 815.26,33.2251 813.5,37C 831.509,37.167 849.509,37.667 867.5,38.5C 865.428,43.0501 863.762,47.7168 862.5,52.5C 844.164,52.3334 825.83,52.5001 807.5,53C 805.704,56.7598 804.038,60.5931 802.5,64.5C 820.833,65.1667 839.167,65.8333 857.5,66.5C 855.485,71.1925 853.485,75.8592 851.5,80.5 Z"/></g>
<g><path style="opacity:0.959" fill="#000000" d="M 931.5,80.5 C 916.5,80.5 901.5,80.5 886.5,80.5C 894.022,61.9535 901.689,43.4535 909.5,25C 900.506,24.5002 891.506,24.3336 882.5,24.5C 883.762,19.7168 885.428,15.0501 887.5,10.5C 920.827,9.50013 954.16,9.1668 987.5,9.5C 986.411,14.3499 984.745,19.0165 982.5,23.5C 972.833,24.1667 963.167,24.8333 953.5,25.5C 945.877,43.7419 938.544,62.0752 931.5,80.5 Z"/></g>
<g><path style="opacity:0.957" fill="#000000" d="M 1067.5,80.5 C 1034.5,80.5 1001.5,80.5 968.5,80.5C 976.35,56.7878 985.35,33.4545 995.5,10.5C 1028.83,9.50013 1062.16,9.1668 1095.5,9.5C 1093.64,14.4262 1091.97,19.4262 1090.5,24.5C 1071.59,24.174 1052.76,24.5073 1034,25.5C 1032.5,29.1667 1031,32.8333 1029.5,36.5C 1047.15,37.4995 1064.82,37.8329 1082.5,37.5C 1081.54,42.5594 1079.87,47.3927 1077.5,52C 1059.16,52.167 1040.82,52.667 1022.5,53.5C 1020.96,57.4069 1019.3,61.2402 1017.5,65C 1035.83,65.4999 1054.16,65.6666 1072.5,65.5C 1071.12,70.5939 1069.45,75.5939 1067.5,80.5 Z"/></g>
<g><path style="opacity:0.955" fill="#000000" d="M 1175.5,80.5 C 1144.5,80.5 1113.5,80.5 1082.5,80.5C 1079.58,76.7165 1078.74,72.3831 1080,67.5C 1086.67,50.8333 1093.33,34.1667 1100,17.5C 1101.06,14.4384 1102.89,11.9384 1105.5,10C 1137.17,9.33333 1168.83,9.33333 1200.5,10C 1201.59,12.0639 1201.76,14.2305 1201,16.5C 1198.66,21.3435 1196.83,26.3435 1195.5,31.5C 1183.48,31.8323 1171.48,31.499 1159.5,30.5C 1160.75,28.677 1161.41,26.677 1161.5,24.5C 1154.83,24.5 1148.17,24.5 1141.5,24.5C 1136.74,38.0268 1131.41,51.3602 1125.5,64.5C 1143.82,65.4996 1162.15,65.8329 1180.5,65.5C 1179.03,70.5621 1177.37,75.5621 1175.5,80.5 Z"/></g>
<g><path style="opacity:0.967" fill="#000000" d="M 1249.5,9.5 C 1249.5,33.1667 1249.5,56.8333 1249.5,80.5C 1236.5,80.5 1223.5,80.5 1210.5,80.5C 1217.53,61.8998 1224.87,43.3998 1232.5,25C 1223.48,24.832 1214.48,24.332 1205.5,23.5C 1207.33,19.1667 1209.17,14.8333 1211,10.5C 1223.75,9.51089 1236.59,9.17755 1249.5,9.5 Z"/></g>
</svg>
